{
  "chapters": [],
  "format": {
    "bit_rate": "249978400",
    "duration": "0.040000",
    "filename": "/workspaces/typed-ffmpeg/src/ffmpeg/tests/test_probe/test_data/4ox1IBJxK3cVd0uJA6gOtceSP3g.jpg",
    "format_long_name": "image2 sequence",
    "format_name": "image2",
    "nb_programs": 0,
    "nb_streams": 1,
    "probe_score": 50,
    "size": "1249892",
    "start_time": "0.000000"
  },
  "packets_and_frames": [
    {
      "codec_type": "video",
      "dts": 0,
      "dts_time": "0.000000",
      "duration": 1,
      "duration_time": "0.040000",
      "flags": "K__",
      "pts": 0,
      "pts_time": "0.000000",
      "size": "1249892",
      "stream_index": 0,
      "type": "packet"
    },
    {
      "best_effort_timestamp": 0,
      "best_effort_timestamp_time": "0.000000",
      "chroma_location": "center",
      "coded_picture_number": 0,
      "color_range": "pc",
      "color_space": "bt470bg",
      "display_picture_number": 0,
      "duration": 1,
      "duration_time": "0.040000",
      "height": 836,
      "interlaced_frame": 0,
      "key_frame": 1,
      "media_type": "video",
      "pict_type": "I",
      "pix_fmt": "yuvj444p",
      "pkt_dts": 0,
      "pkt_dts_time": "0.000000",
      "pkt_duration": 1,
      "pkt_duration_time": "0.040000",
      "pkt_size": "1249892",
      "pts": 0,
      "pts_time": "0.000000",
      "repeat_pict": 0,
      "sample_aspect_ratio": "1:1",
      "stream_index": 0,
      "tags": {
        "ApertureValue": "5655638:1000000",
        "Artist": "Giuseppe Parisi",
        "BitsPerSample": "    8,     8,     8",
        "ColorSpace": "    1",
        "Compression": "    1",
        "Copyright": "Giuseppe Parisi",
        "CustomRendered": "    0",
        "DateTime": "2010:09:24 01:48:20",
        "DateTimeDigitized": "2010:09:09 01:10:49",
        "DateTimeOriginal": "2010:09:09 01:10:49",
        "ExifVersion": " 48,  50,  50,  49",
        "ExposureBiasValue": "      0:1      ",
        "ExposureMode": "    1",
        "ExposureProgram": "    1",
        "ExposureTime": "      1:160    ",
        "FNumber": "     71:10     ",
        "Flash": "   16",
        "FocalLength": "     50:1      ",
        "FocalPlaneResolutionUnit": "    2",
        "FocalPlaneXResolution": "5616000:1459   ",
        "FocalPlaneYResolution": "3744000:958    ",
        "ISOSpeedRatings": "  200",
        "ImageDescription": "A handsome muscular cook posing with a pan on his shoulder on a textured backgroung with food floating all around into a circle of lights",
        "ImageLength": " 3744",
        "ImageWidth": " 5616",
        "Make": "Canon",
        "MaxApertureValue": "    175:100    ",
        "MeteringMode": "    2",
        "Model": "Canon EOS 5D Mark II",
        "PixelXDimension": "   5616",
        "PixelYDimension": "   3744",
        "PlanarConfiguration": "    1",
        "ResolutionUnit": "    2",
        "SamplesPerPixel": "    3",
        "SceneCaptureType": "    0",
        "ShutterSpeedValue": "7321928:1000000",
        "Software": "Adobe Photoshop CS4 Windows",
        "SubSecTime": "87",
        "SubSecTimeDigitized": "87",
        "SubSecTimeOriginal": "87",
        "WhiteBalance": "    1",
        "XResolution": "2400000:10000  ",
        "YResolution": "2400000:10000  "
      },
      "top_field_first": 0,
      "type": "frame",
      "width": 1254
    }
  ],
  "programs": [],
  "streams": [
    {
      "avg_frame_rate": "25/1",
      "bits_per_raw_sample": "8",
      "chroma_location": "center",
      "closed_captions": 0,
      "codec_long_name": "Motion JPEG",
      "codec_name": "mjpeg",
      "codec_tag": "0x0000",
      "codec_tag_string": "[0][0][0][0]",
      "codec_type": "video",
      "coded_height": 836,
      "coded_width": 1254,
      "color_range": "pc",
      "color_space": "bt470bg",
      "display_aspect_ratio": "3:2",
      "disposition": {
        "attached_pic": 0,
        "captions": 0,
        "clean_effects": 0,
        "comment": 0,
        "default": 0,
        "dependent": 0,
        "descriptions": 0,
        "dub": 0,
        "forced": 0,
        "hearing_impaired": 0,
        "karaoke": 0,
        "lyrics": 0,
        "metadata": 0,
        "original": 0,
        "still_image": 0,
        "timed_thumbnails": 0,
        "visual_impaired": 0
      },
      "duration": "0.040000",
      "duration_ts": 1,
      "film_grain": 0,
      "has_b_frames": 0,
      "height": 836,
      "index": 0,
      "level": -99,
      "nb_read_frames": "1",
      "nb_read_packets": "1",
      "pix_fmt": "yuvj444p",
      "profile": "Baseline",
      "r_frame_rate": "25/1",
      "refs": 1,
      "sample_aspect_ratio": "1:1",
      "start_pts": 0,
      "start_time": "0.000000",
      "time_base": "1/25",
      "width": 1254
    }
  ]
}
